<svg width="166" height="60" viewBox="0 0 166 60" fill="none" xmlns="http://www.w3.org/2000/svg">
<path fill-rule="evenodd" clip-rule="evenodd" d="M0 5C0 2.23858 2.23858 0 5 0H161C163.761 0 166 2.23858 166 5V55C166 57.7614 163.761 60 161 60H5C2.23858 60 0 57.7614 0 55V5ZM18 19.725V24.975C17.8167 25.025 17.5333 25.075 17.15 25.125C16.7667 25.175 16.375 25.2 15.975 25.2C15.1083 25.2 14.5 25.05 14.15 24.75C13.8 24.4333 13.625 23.8917 13.625 23.125V19.725V13.95V9.8C13.825 9.76667 14.1167 9.725 14.5 9.675C14.9 9.60833 15.2833 9.575 15.65 9.575C16.4833 9.575 17.0833 9.71667 17.45 10C17.8167 10.2833 18 10.8333 18 11.65V13.95V19.725ZM25.31 15.5344C25.352 16.1091 25.3794 16.6643 25.3922 17.2C25.4255 17.9 25.4422 18.5667 25.4422 19.2V21.025V25C25.2755 25.0333 25.0005 25.075 24.6172 25.125C24.2505 25.175 23.8755 25.2 23.4922 25.2C22.6589 25.2 22.0755 25.0583 21.7422 24.775C21.4089 24.475 21.2422 23.95 21.2422 23.2V16.425V15V10.625C21.4755 10.2917 21.8339 10.0417 22.3172 9.875C22.8005 9.70833 23.3172 9.625 23.8672 9.625C24.4839 9.625 25.0672 9.725 25.6172 9.925C26.1839 10.1083 26.6339 10.5417 26.9672 11.225L29.4672 16.275C29.6339 16.6083 29.7839 16.9333 29.9172 17.25C30.0672 17.5667 30.2089 17.8917 30.3422 18.225C30.4922 18.5583 30.6422 18.925 30.7922 19.325L30.9053 19.2999C30.8277 18.3056 30.7817 17.3806 30.7672 16.525V13.725V9.775C30.9505 9.74167 31.2255 9.7 31.5922 9.65C31.9589 9.6 32.3339 9.575 32.7172 9.575C33.5505 9.575 34.1339 9.725 34.4672 10.025C34.8005 10.3083 34.9672 10.825 34.9672 11.575V18.4V19.75V24.475C34.7339 24.6917 34.3922 24.8667 33.9422 25C33.5089 25.1333 32.9839 25.2 32.3672 25.2C31.7505 25.2 31.1672 25.1083 30.6172 24.925C30.0672 24.7417 29.6172 24.3 29.2672 23.6L26.7922 18.55C26.6255 18.2 26.4672 17.875 26.3172 17.575C26.1839 17.2583 26.0505 16.9333 25.9172 16.6C25.7839 16.2667 25.6339 15.9 25.4672 15.5L25.31 15.5344ZM42.535 13.35V16.175H48.01C48.1266 16.3583 48.235 16.6 48.335 16.9C48.435 17.1833 48.485 17.5 48.485 17.85C48.485 18.4667 48.3433 18.9167 48.06 19.2C47.7933 19.4833 47.4266 19.625 46.96 19.625H42.585V24.975C42.4016 25.025 42.1183 25.075 41.735 25.125C41.3516 25.175 40.96 25.2 40.56 25.2C39.6933 25.2 39.085 25.05 38.735 24.75C38.385 24.4333 38.21 23.8917 38.21 23.125V18.75V17.675V12.175C38.21 11.4583 38.4183 10.8917 38.835 10.475C39.2516 10.0583 39.8183 9.85 40.535 9.85H48.86C48.9766 10.0333 49.0766 10.275 49.16 10.575C49.26 10.875 49.31 11.2 49.31 11.55C49.31 12.1667 49.1683 12.625 48.885 12.925C48.6183 13.2083 48.2516 13.35 47.785 13.35H42.535ZM55.8662 19.725V21.55H61.5912C61.7079 21.7333 61.8162 21.975 61.9162 22.275C62.0162 22.575 62.0662 22.9 62.0662 23.25C62.0662 23.8667 61.9329 24.325 61.6662 24.625C61.3995 24.925 61.0329 25.075 60.5662 25.075H53.8162C53.0995 25.075 52.5329 24.8667 52.1162 24.45C51.6995 24.0333 51.4912 23.4667 51.4912 22.75V19.725V13.95V9.8C51.6912 9.76667 51.9829 9.725 52.3662 9.675C52.7662 9.60833 53.1495 9.575 53.5162 9.575C54.3495 9.575 54.9495 9.71667 55.3162 10C55.6829 10.2833 55.8662 10.8333 55.8662 11.65V13.95V19.725ZM70.7395 25.45C69.3395 25.45 68.1311 25.2 67.1145 24.7C66.1145 24.2 65.3395 23.5 64.7895 22.6C64.2561 21.7 63.9895 20.65 63.9895 19.45V18.6V17.925V9.8C64.1895 9.76667 64.4811 9.725 64.8645 9.675C65.2645 9.60833 65.6478 9.575 66.0145 9.575C66.8478 9.575 67.4478 9.71667 67.8145 10C68.1811 10.2833 68.3645 10.8333 68.3645 11.65V17.925V18.6V19.375C68.3645 20.1583 68.5811 20.7833 69.0145 21.25C69.4645 21.7 70.0395 21.925 70.7395 21.925C71.4395 21.925 72.0061 21.7 72.4395 21.25C72.8895 20.7833 73.1145 20.1583 73.1145 19.375V18.65V17.925V9.8C73.3145 9.76667 73.6061 9.725 73.9895 9.675C74.3895 9.60833 74.7728 9.575 75.1395 9.575C75.9728 9.575 76.5728 9.71667 76.9395 10C77.3061 10.2833 77.4895 10.8333 77.4895 11.65V17.925V18.65V19.45C77.4895 20.65 77.2145 21.7 76.6645 22.6C76.1311 23.5 75.3561 24.2 74.3395 24.7C73.3395 25.2 72.1395 25.45 70.7395 25.45ZM84.916 20.975V21.625H91.341C91.4577 21.8083 91.5577 22.05 91.641 22.35C91.741 22.65 91.791 22.975 91.791 23.325C91.791 23.9417 91.6577 24.3917 91.391 24.675C91.1244 24.9417 90.7577 25.075 90.291 25.075H82.991C82.2743 25.075 81.7077 24.8667 81.291 24.45C80.8744 24.0333 80.666 23.4667 80.666 22.75V20.975V13.95V12.175C80.666 11.4583 80.8744 10.8917 81.291 10.475C81.7077 10.0583 82.2743 9.85 82.991 9.85H91.241C91.3577 10.0333 91.4577 10.2667 91.541 10.55C91.641 10.8333 91.691 11.15 91.691 11.5C91.691 12.1167 91.5577 12.5667 91.291 12.85C91.0244 13.1333 90.6577 13.275 90.191 13.275H84.916V13.95V15.6H90.541C90.6577 15.7833 90.7577 16.0167 90.841 16.3C90.941 16.5833 90.991 16.9 90.991 17.25C90.991 17.8667 90.8577 18.3167 90.591 18.6C90.3243 18.8667 89.9577 19 89.491 19H84.916V20.975ZM98.4301 15.5344C98.4722 16.1091 98.4995 16.6643 98.5123 17.2C98.5456 17.9 98.5623 18.5667 98.5623 19.2V21.025V25C98.3956 25.0333 98.1206 25.075 97.7373 25.125C97.3706 25.175 96.9956 25.2 96.6123 25.2C95.779 25.2 95.1956 25.0583 94.8623 24.775C94.529 24.475 94.3623 23.95 94.3623 23.2V16.425V15V10.625C94.5956 10.2917 94.954 10.0417 95.4373 9.875C95.9206 9.70833 96.4373 9.625 96.9873 9.625C97.604 9.625 98.1873 9.725 98.7373 9.925C99.304 10.1083 99.754 10.5417 100.087 11.225L102.587 16.275C102.754 16.6083 102.904 16.9333 103.037 17.25C103.187 17.5667 103.329 17.8917 103.462 18.225C103.612 18.5583 103.762 18.925 103.912 19.325L104.025 19.2999C103.948 18.3056 103.902 17.3806 103.887 16.525V13.725V9.775C104.071 9.74167 104.346 9.7 104.712 9.65C105.079 9.6 105.454 9.575 105.837 9.575C106.671 9.575 107.254 9.725 107.587 10.025C107.921 10.3083 108.087 10.825 108.087 11.575V18.4V19.75V24.475C107.854 24.6917 107.512 24.8667 107.062 25C106.629 25.1333 106.104 25.2 105.487 25.2C104.871 25.2 104.287 25.1083 103.737 24.925C103.187 24.7417 102.737 24.3 102.387 23.6L99.9123 18.55C99.7456 18.2 99.5873 17.875 99.4373 17.575C99.304 17.2583 99.1706 16.9333 99.0373 16.6C98.904 16.2667 98.754 15.9 98.5873 15.5L98.4301 15.5344ZM123.23 12.05C123.23 12.4667 123.122 12.8417 122.905 13.175C122.688 13.4917 122.438 13.7417 122.155 13.925C121.738 13.6417 121.28 13.4 120.78 13.2C120.28 13 119.705 12.9 119.055 12.9C118.205 12.9 117.48 13.0833 116.88 13.45C116.297 13.8 115.847 14.3167 115.53 15C115.23 15.6667 115.08 16.475 115.08 17.425C115.08 18.8917 115.447 20.0083 116.18 20.775C116.93 21.5417 117.963 21.925 119.28 21.925C119.963 21.925 120.538 21.8333 121.005 21.65C121.488 21.4667 121.947 21.2583 122.38 21.025C122.663 21.2417 122.88 21.5167 123.03 21.85C123.197 22.1833 123.28 22.5667 123.28 23C123.28 23.3833 123.18 23.7333 122.98 24.05C122.78 24.3667 122.438 24.6333 121.955 24.85C121.655 24.9833 121.23 25.1167 120.68 25.25C120.13 25.3833 119.463 25.45 118.68 25.45C117.18 25.45 115.813 25.1667 114.58 24.6C113.363 24.0333 112.388 23.1583 111.655 21.975C110.938 20.7917 110.58 19.275 110.58 17.425C110.58 15.6917 110.93 14.2333 111.63 13.05C112.33 11.85 113.272 10.9417 114.455 10.325C115.655 9.69167 116.972 9.375 118.405 9.375C119.422 9.375 120.288 9.49167 121.005 9.725C121.722 9.95833 122.272 10.275 122.655 10.675C123.038 11.075 123.23 11.5333 123.23 12.05ZM129.862 20.975V21.625H136.287C136.404 21.8083 136.504 22.05 136.587 22.35C136.687 22.65 136.737 22.975 136.737 23.325C136.737 23.9417 136.604 24.3917 136.337 24.675C136.071 24.9417 135.704 25.075 135.237 25.075H127.937C127.221 25.075 126.654 24.8667 126.237 24.45C125.821 24.0333 125.612 23.4667 125.612 22.75V20.975V13.95V12.175C125.612 11.4583 125.821 10.8917 126.237 10.475C126.654 10.0583 127.221 9.85 127.937 9.85H136.187C136.304 10.0333 136.404 10.2667 136.487 10.55C136.587 10.8333 136.637 11.15 136.637 11.5C136.637 12.1167 136.504 12.5667 136.237 12.85C135.971 13.1333 135.604 13.275 135.137 13.275H129.862V13.95V15.6H135.487C135.604 15.7833 135.704 16.0167 135.787 16.3C135.887 16.5833 135.937 16.9 135.937 17.25C135.937 17.8667 135.804 18.3167 135.537 18.6C135.271 18.8667 134.904 19 134.437 19H129.862V20.975ZM143.634 16.775H144.884C145.584 16.775 146.159 16.6167 146.609 16.3C147.059 15.9667 147.284 15.4833 147.284 14.85C147.284 14.2167 147.075 13.7417 146.659 13.425C146.259 13.0917 145.617 12.925 144.734 12.925C144.517 12.925 144.325 12.9333 144.159 12.95C143.992 12.9667 143.817 12.9917 143.634 13.025V16.775ZM143.684 20.1H145.012L147.134 23.525C147.45 24.0417 147.792 24.4583 148.159 24.775C148.542 25.0917 149.092 25.25 149.809 25.25C150.359 25.25 150.85 25.0917 151.284 24.775C151.734 24.4583 152.042 24.0167 152.209 23.45C152.042 23.1667 151.817 22.8333 151.534 22.45C151.25 22.0667 150.934 21.65 150.584 21.2C150.25 20.75 149.892 20.2833 149.509 19.8C149.343 19.5911 149.179 19.3806 149.016 19.1685C149.759 18.7348 150.365 18.187 150.834 17.525C151.417 16.725 151.709 15.8167 151.709 14.8C151.709 13.1667 151.125 11.8667 149.959 10.9C148.792 9.91667 147.059 9.425 144.759 9.425C143.909 9.425 143.109 9.475 142.359 9.575C141.609 9.65833 140.95 9.8 140.384 10C140.067 10.1167 139.809 10.275 139.609 10.475C139.409 10.6583 139.309 10.925 139.309 11.275V18.4V20.1V23.125C139.309 23.8917 139.484 24.4333 139.834 24.75C140.184 25.05 140.792 25.2 141.659 25.2C142.059 25.2 142.45 25.175 142.834 25.125C143.217 25.075 143.5 25.025 143.684 24.975V20.1ZM29.2128 34.5802C29.4953 34.1455 29.6366 33.6565 29.6366 33.1132C29.6366 32.4395 29.3867 31.8418 28.8868 31.3202C28.3869 30.7986 27.6697 30.3857 26.7352 30.0814C25.8007 29.7771 24.6705 29.625 23.3448 29.625C21.4757 29.625 19.7588 30.0379 18.194 30.8638C16.6509 31.6679 15.423 32.8524 14.5102 34.4172C13.5974 35.9603 13.141 37.8619 13.141 40.1222C13.141 42.5346 13.6083 44.5123 14.5428 46.0554C15.4991 47.5985 16.7705 48.7395 18.357 49.4784C19.9653 50.2173 21.7474 50.5868 23.7034 50.5868C24.7249 50.5868 25.5942 50.4999 26.3114 50.326C27.0286 50.1521 27.5828 49.9783 27.974 49.8044C28.6043 49.5219 29.0498 49.1741 29.3106 48.7612C29.5714 48.3483 29.7018 47.8919 29.7018 47.392C29.7018 46.8269 29.5931 46.3271 29.3758 45.8924C29.1802 45.4577 28.8977 45.0991 28.5282 44.8166C27.9631 45.1209 27.3655 45.3925 26.7352 45.6316C26.1267 45.8707 25.3769 45.9902 24.4858 45.9902C22.7689 45.9902 21.4214 45.4903 20.4434 44.4906C19.4871 43.4909 19.009 42.0347 19.009 40.1222C19.009 38.8834 19.2046 37.8293 19.5958 36.96C20.0087 36.0689 20.5955 35.3952 21.3562 34.9388C22.1386 34.4607 23.084 34.2216 24.1924 34.2216C25.04 34.2216 25.7898 34.352 26.4418 34.6128C27.0938 34.8736 27.6915 35.1887 28.2348 35.5582C28.6043 35.3191 28.9303 34.9931 29.2128 34.5802ZM50.7133 45.8272C51.6261 44.2624 52.0825 42.3499 52.0825 40.0896C52.0825 37.8293 51.6261 35.9277 50.7133 34.3846C49.8005 32.8198 48.5617 31.6353 46.9969 30.8312C45.4321 30.0271 43.6825 29.625 41.7483 29.625C39.814 29.625 38.0645 30.0271 36.4997 30.8312C34.9566 31.6353 33.7287 32.8198 32.8159 34.3846C31.9031 35.9277 31.4467 37.8293 31.4467 40.0896C31.4467 42.3499 31.8922 44.2624 32.7833 45.8272C33.6743 47.392 34.8914 48.5765 36.4345 49.3806C37.9993 50.1847 39.7705 50.5868 41.7483 50.5868C43.726 50.5868 45.4864 50.1847 47.0295 49.3806C48.5943 48.5765 49.8222 47.392 50.7133 45.8272ZM45.0083 35.7212C45.8124 36.6992 46.2145 38.1553 46.2145 40.0896C46.2145 42.0673 45.8124 43.5452 45.0083 44.5232C44.2041 45.5012 43.1283 45.9902 41.7809 45.9902C40.4334 45.9902 39.3467 45.5012 38.5209 44.5232C37.7167 43.5452 37.3147 42.0673 37.3147 40.0896C37.3147 38.1336 37.7167 36.6666 38.5209 35.6886C39.3467 34.7106 40.4225 34.2216 41.7483 34.2216C43.1175 34.2216 44.2041 34.7215 45.0083 35.7212ZM60.7581 39.8288C60.7415 39.1303 60.7058 38.4063 60.651 37.6569L60.8559 37.612C61.0733 38.1336 61.2689 38.6117 61.4427 39.0464C61.6166 39.4811 61.7905 39.9049 61.9643 40.3178C62.1599 40.709 62.3664 41.1328 62.5837 41.5892L65.8111 48.1744C66.2675 49.0872 66.8543 49.6631 67.5715 49.9022C68.2887 50.1413 69.0494 50.2608 69.8535 50.2608C70.6577 50.2608 71.3423 50.1739 71.9073 50C72.4941 49.8261 72.9397 49.5979 73.2439 49.3154V43.154V41.3936V32.4938C73.2439 31.5158 73.0266 30.8421 72.5919 30.4726C72.1573 30.0814 71.3966 29.8858 70.3099 29.8858C69.8101 29.8858 69.3211 29.9184 68.8429 29.9836C68.3648 30.0488 68.0062 30.1031 67.7671 30.1466V35.2974V38.9486C67.786 40.0643 67.8461 41.2705 67.9473 42.5671L67.7997 42.5998C67.6041 42.0782 67.4085 41.6001 67.2129 41.1654C67.0391 40.7307 66.8543 40.3069 66.6587 39.894C66.4849 39.4811 66.2893 39.0573 66.0719 38.6226L62.8119 32.0374C62.3773 31.1463 61.7905 30.5813 61.0515 30.3422C60.3343 30.0814 59.5737 29.951 58.7695 29.951C58.0523 29.951 57.3786 30.0597 56.7483 30.277C56.1181 30.4943 55.6508 30.8203 55.3465 31.255V36.96V38.8182V47.6528C55.3465 48.6308 55.5639 49.3154 55.9985 49.7066C56.4332 50.0761 57.1939 50.2608 58.2805 50.2608C58.7804 50.2608 59.2694 50.2282 59.7475 50.163C60.2474 50.0978 60.606 50.0435 60.8233 50V44.8166V42.4368C60.8233 41.6109 60.8016 40.7416 60.7581 39.8288ZM82.8841 39.8288C82.8675 39.1303 82.8318 38.4063 82.7769 37.6569L82.9819 37.612C83.1992 38.1336 83.3948 38.6117 83.5687 39.0464C83.7426 39.4811 83.9164 39.9049 84.0903 40.3178C84.2859 40.709 84.4924 41.1328 84.7097 41.5892L87.9371 48.1744C88.3935 49.0872 88.9803 49.6631 89.6975 49.9022C90.4147 50.1413 91.1754 50.2608 91.9795 50.2608C92.7836 50.2608 93.4682 50.1739 94.0333 50C94.6201 49.8261 95.0656 49.5979 95.3699 49.3154V43.154V41.3936V32.4938C95.3699 31.5158 95.1526 30.8421 94.7179 30.4726C94.2832 30.0814 93.5226 29.8858 92.4359 29.8858C91.936 29.8858 91.447 29.9184 90.9689 29.9836C90.4908 30.0488 90.1322 30.1031 89.8931 30.1466V35.2974V38.9486C89.912 40.0643 89.9721 41.2705 90.0732 42.5671L89.9257 42.5998C89.7301 42.0782 89.5345 41.6001 89.3389 41.1654C89.165 40.7307 88.9803 40.3069 88.7847 39.894C88.6108 39.4811 88.4152 39.0573 88.1979 38.6226L84.9379 32.0374C84.5032 31.1463 83.9164 30.5813 83.1775 30.3422C82.4603 30.0814 81.6996 29.951 80.8955 29.951C80.1783 29.951 79.5046 30.0597 78.8743 30.277C78.244 30.4943 77.7768 30.8203 77.4725 31.255V36.96V38.8182V47.6528C77.4725 48.6308 77.6898 49.3154 78.1245 49.7066C78.5592 50.0761 79.3198 50.2608 80.4065 50.2608C80.9064 50.2608 81.3954 50.2282 81.8735 50.163C82.3734 50.0978 82.732 50.0435 82.9493 50V44.8166V42.4368C82.9493 41.6109 82.9276 40.7416 82.8841 39.8288ZM105.14 45.599V44.7514V42.176H111.106C111.715 42.176 112.193 42.0021 112.541 41.6544C112.888 41.2849 113.062 40.6981 113.062 39.894C113.062 39.4376 112.997 39.0247 112.867 38.6552C112.758 38.2857 112.628 37.9815 112.475 37.7424H105.14V35.5908V34.7106H112.019C112.628 34.7106 113.106 34.5259 113.453 34.1564C113.801 33.7869 113.975 33.2001 113.975 32.396C113.975 31.9396 113.91 31.5267 113.779 31.1572C113.671 30.7877 113.54 30.4835 113.388 30.2444H102.63C101.696 30.2444 100.957 30.5161 100.413 31.0594C99.8701 31.6027 99.5985 32.3417 99.5985 33.2762V35.5908V44.7514V47.066C99.5985 48.0005 99.8701 48.7395 100.413 49.2828C100.957 49.8261 101.696 50.0978 102.63 50.0978H112.149C112.758 50.0978 113.236 49.9239 113.584 49.5762C113.932 49.2067 114.105 48.6199 114.105 47.8158C114.105 47.3594 114.04 46.9356 113.91 46.5444C113.801 46.1532 113.671 45.8381 113.519 45.599H105.14ZM132.361 34.5802C132.644 34.1455 132.785 33.6565 132.785 33.1132C132.785 32.4395 132.535 31.8418 132.035 31.3202C131.535 30.7986 130.818 30.3857 129.884 30.0814C128.949 29.7771 127.819 29.625 126.493 29.625C124.624 29.625 122.907 30.0379 121.342 30.8638C119.799 31.6679 118.571 32.8524 117.659 34.4172C116.746 35.9603 116.289 37.8619 116.289 40.1222C116.289 42.5346 116.757 44.5123 117.691 46.0554C118.647 47.5985 119.919 48.7395 121.505 49.4784C123.114 50.2173 124.896 50.5868 126.852 50.5868C127.873 50.5868 128.743 50.4999 129.46 50.326C130.177 50.1521 130.731 49.9783 131.122 49.8044C131.753 49.5219 132.198 49.1741 132.459 48.7612C132.72 48.3483 132.85 47.8919 132.85 47.392C132.85 46.8269 132.742 46.3271 132.524 45.8924C132.329 45.4577 132.046 45.0991 131.677 44.8166C131.112 45.1209 130.514 45.3925 129.884 45.6316C129.275 45.8707 128.525 45.9902 127.634 45.9902C125.917 45.9902 124.57 45.4903 123.592 44.4906C122.636 43.4909 122.157 42.0347 122.157 40.1222C122.157 38.8834 122.353 37.8293 122.744 36.96C123.157 36.0689 123.744 35.3952 124.505 34.9388C125.287 34.4607 126.232 34.2216 127.341 34.2216C128.188 34.2216 128.938 34.352 129.59 34.6128C130.242 34.8736 130.84 35.1887 131.383 35.5582C131.753 35.3191 132.079 34.9931 132.361 34.5802ZM151.105 30.2444H146.248H140.249H136.794C136.185 30.2444 135.696 30.4291 135.327 30.7986C134.979 31.1681 134.805 31.7657 134.805 32.5916C134.805 33.048 134.859 33.4718 134.968 33.863C135.098 34.2542 135.24 34.5693 135.392 34.8084H140.249H140.314V47.555C140.314 48.5547 140.543 49.2611 140.999 49.674C141.455 50.0652 142.249 50.2608 143.379 50.2608C143.9 50.2608 144.411 50.2282 144.911 50.163C145.411 50.0978 145.78 50.0326 146.019 49.9674V34.8084H146.248H149.703C150.312 34.8084 150.79 34.6237 151.138 34.2542C151.507 33.863 151.692 33.2653 151.692 32.4612C151.692 32.0048 151.627 31.581 151.496 31.1898C151.387 30.7986 151.257 30.4835 151.105 30.2444Z" fill="#FF5D26"/>
</svg>
