<svg width="29" height="29" viewBox="0 0 29 29" fill="none" xmlns="http://www.w3.org/2000/svg">
<path d="M26.7444 29L16.5944 18.85C15.7889 19.4944 14.8625 20.0046 13.8153 20.3806C12.7681 20.7565 11.6537 20.9444 10.4722 20.9444C7.54537 20.9444 5.06856 19.9305 3.04178 17.9027C1.015 15.8748 0.00107407 13.398 0 10.4722C0 7.54537 1.01393 5.06856 3.04178 3.04178C5.06963 1.015 7.54644 0.00107407 10.4722 0C13.3991 0 15.8759 1.01393 17.9027 3.04178C19.9294 5.06963 20.9434 7.54644 20.9444 10.4722C20.9444 11.6537 20.7565 12.7681 20.3806 13.8153C20.0046 14.8625 19.4944 15.7889 18.85 16.5944L29 26.7444L26.7444 29ZM10.4722 17.7222C12.4861 17.7222 14.1982 17.0171 15.6084 15.6068C17.0187 14.1966 17.7233 12.485 17.7222 10.4722C17.7222 8.45833 17.0171 6.74626 15.6068 5.336C14.1966 3.92574 12.485 3.22115 10.4722 3.22222C8.45833 3.22222 6.74626 3.92735 5.336 5.33761C3.92574 6.74787 3.22115 8.45941 3.22222 10.4722C3.22222 12.4861 3.92735 14.1982 5.33761 15.6084C6.74787 17.0187 8.45941 17.7233 10.4722 17.7222Z" fill="#F0F0F0"/>
</svg>
