<svg width="75" height="70" viewBox="0 0 75 70" fill="none" xmlns="http://www.w3.org/2000/svg">
<path d="M26.932 7H48.0092C48.6532 7 49.1801 7.525 49.1801 8.16667V14H25.761V8.16667C25.761 7.525 26.288 7 26.932 7ZM18.7353 8.16667V14H9.36765C4.2008 14 0 18.1854 0 23.3333V37.3333H28.1029H46.8382H74.9412V23.3333C74.9412 18.1854 70.7404 14 65.5735 14H56.2059V8.16667C56.2059 3.66042 52.532 0 48.0092 0H26.932C22.4092 0 18.7353 3.66042 18.7353 8.16667ZM74.9412 42H46.8382V46.6667C46.8382 49.2479 44.7452 51.3333 42.1544 51.3333H32.7868C30.196 51.3333 28.1029 49.2479 28.1029 46.6667V42H0V60.6667C0 65.8146 4.2008 70 9.36765 70H65.5735C70.7404 70 74.9412 65.8146 74.9412 60.6667V42Z" fill="#111111"/>
</svg>
