<svg width="17" height="13" viewBox="0 0 17 13" fill="none" xmlns="http://www.w3.org/2000/svg">
<mask id="path-1-inside-1_303_153" fill="white">
<path d="M5.10567 10.3698L1.77167 7.1282C1.59202 6.95353 1.34836 6.8554 1.0943 6.8554C0.840234 6.8554 0.596577 6.95353 0.416928 7.1282C0.237279 7.30287 0.136353 7.53977 0.136353 7.78679C0.136353 7.9091 0.161131 8.03022 0.209272 8.14322C0.257413 8.25622 0.327975 8.35889 0.416928 8.44538L4.4331 12.3502C4.80782 12.7145 5.41313 12.7145 5.78784 12.3502L15.9532 2.46669C16.1328 2.29202 16.2338 2.05512 16.2338 1.8081C16.2338 1.56108 16.1328 1.32418 15.9532 1.14951C15.7735 0.974837 15.5299 0.876709 15.2758 0.876709C15.0217 0.876709 14.7781 0.974837 14.5984 1.14951L5.10567 10.3698Z"/>
</mask>
<path d="M5.10567 10.3698L1.77167 7.1282C1.59202 6.95353 1.34836 6.8554 1.0943 6.8554C0.840234 6.8554 0.596577 6.95353 0.416928 7.1282C0.237279 7.30287 0.136353 7.53977 0.136353 7.78679C0.136353 7.9091 0.161131 8.03022 0.209272 8.14322C0.257413 8.25622 0.327975 8.35889 0.416928 8.44538L4.4331 12.3502C4.80782 12.7145 5.41313 12.7145 5.78784 12.3502L15.9532 2.46669C16.1328 2.29202 16.2338 2.05512 16.2338 1.8081C16.2338 1.56108 16.1328 1.32418 15.9532 1.14951C15.7735 0.974837 15.5299 0.876709 15.2758 0.876709C15.0217 0.876709 14.7781 0.974837 14.5984 1.14951L5.10567 10.3698Z" fill="#111111"/>
<path d="M5.10567 10.3698L1.62017 13.9547L5.1039 17.3418L8.58935 13.9564L5.10567 10.3698ZM1.77167 7.1282L5.25716 3.54332L5.25716 3.54332L1.77167 7.1282ZM1.0943 6.8554L1.0943 11.8554L1.0943 6.8554ZM0.136353 7.78679L-4.86365 7.78679L0.136353 7.78679ZM0.416928 8.44538L3.90242 4.86051L3.90242 4.86051L0.416928 8.44538ZM4.4331 12.3502L0.947609 15.9351L0.947609 15.9351L4.4331 12.3502ZM5.78784 12.3502L9.27333 15.9351L9.27333 15.9351L5.78784 12.3502ZM15.9532 2.46669L12.4677 -1.11819L12.4677 -1.11819L15.9532 2.46669ZM16.2338 1.8081L21.2338 1.8081L16.2338 1.8081ZM15.2758 0.876709L15.2758 -4.12329L15.2758 0.876709ZM14.5984 1.14951L18.0821 4.73615L18.0839 4.73438L14.5984 1.14951ZM8.59116 6.7849L5.25716 3.54332L-1.71383 10.7131L1.62017 13.9547L8.59116 6.7849ZM5.25716 3.54332C4.12973 2.44715 2.6298 1.8554 1.0943 1.8554L1.0943 11.8554C0.0669233 11.8554 -0.945694 11.4599 -1.71383 10.7131L5.25716 3.54332ZM1.0943 1.8554C-0.441205 1.8554 -1.94114 2.44715 -3.06857 3.54332L3.90242 10.7131C3.13429 11.4599 2.12167 11.8554 1.0943 11.8554L1.0943 1.8554ZM-3.06857 3.54332C-4.20077 4.64415 -4.86365 6.1676 -4.86365 7.78679L5.13635 7.78679C5.13635 8.91194 4.67533 9.96159 3.90242 10.7131L-3.06857 3.54332ZM-4.86365 7.78679C-4.86365 8.58554 -4.70165 9.37299 -4.39069 10.1029L4.80923 6.18352C5.02391 6.68744 5.13635 7.23266 5.13635 7.78679L-4.86365 7.78679ZM-4.39069 10.1029C-4.07987 10.8325 -3.62821 11.4861 -3.06857 12.0303L3.90242 4.86051C4.28416 5.23166 4.59469 5.67994 4.80923 6.18352L-4.39069 10.1029ZM-3.06857 12.0303L0.947609 15.9351L7.9186 8.76534L3.90242 4.86051L-3.06857 12.0303ZM0.947609 15.9351C3.26296 18.1863 6.95799 18.1863 9.27333 15.9351L2.30235 8.76534C3.86826 7.24284 6.35268 7.24284 7.9186 8.76534L0.947609 15.9351ZM9.27333 15.9351L19.4387 6.05156L12.4677 -1.11819L2.30235 8.76534L9.27333 15.9351ZM19.4387 6.05156C20.5709 4.95073 21.2338 3.42726 21.2338 1.8081H11.2338C11.2338 0.682968 11.6948 -0.366692 12.4677 -1.11819L19.4387 6.05156ZM21.2338 1.8081C21.2338 0.188929 20.5709 -1.33454 19.4387 -2.43537L12.4677 4.73438C11.6948 3.98289 11.2338 2.93323 11.2338 1.8081L21.2338 1.8081ZM19.4387 -2.43537C18.3112 -3.53155 16.8113 -4.12329 15.2758 -4.12329L15.2758 5.87671C14.2484 5.87671 13.2358 5.48122 12.4677 4.73438L19.4387 -2.43537ZM15.2758 -4.12329C13.7403 -4.12329 12.2404 -3.53155 11.1129 -2.43537L18.0839 4.73438C17.3158 5.48122 16.3032 5.87671 15.2758 5.87671L15.2758 -4.12329ZM11.1148 -2.43713L1.62199 6.78314L8.58935 13.9564L18.0821 4.73615L11.1148 -2.43713Z" fill="#FF5D26" mask="url(#path-1-inside-1_303_153)"/>
</svg>
