<svg width="19" height="18" viewBox="0 0 19 18" fill="none" xmlns="http://www.w3.org/2000/svg">
<path d="M18.9179 6.75102C18.8184 6.45142 18.6314 6.18714 18.3801 5.99104C18.1289 5.79494 17.8245 5.67566 17.5048 5.64803L12.8379 5.25169L11.0121 0.979601C10.8865 0.689081 10.6766 0.441279 10.4086 0.267083C10.1405 0.0928868 9.82622 0 9.50479 0C9.18337 0 8.86905 0.0928868 8.60101 0.267083C8.33298 0.441279 8.12308 0.689081 7.99748 0.979601L6.16922 5.25169L1.50237 5.64803C1.18092 5.67416 0.87449 5.79293 0.621529 5.98943C0.368568 6.18593 0.180343 6.45141 0.080472 6.75256C-0.0193995 7.05371 -0.026469 7.37711 0.0601504 7.68219C0.14677 7.98727 0.32322 8.26043 0.567361 8.46741L4.11417 11.5063L3.0498 16.0276C2.9768 16.3354 2.99785 16.6576 3.11031 16.9538C3.22277 17.25 3.42166 17.5071 3.6821 17.6929C3.94254 17.8787 4.25299 17.985 4.57462 17.9985C4.89626 18.012 5.21482 17.9322 5.49048 17.7689L9.50234 15.3764L13.5142 17.7689C13.7898 17.9319 14.1083 18.0116 14.4298 17.9979C14.7513 17.9843 15.0615 17.8779 15.3218 17.6922C15.5821 17.5064 15.7809 17.2494 15.8934 16.9534C16.0058 16.6574 16.0269 16.3353 15.9541 16.0276L14.8897 11.5063L18.4365 8.46741C18.68 8.25968 18.8556 7.98596 18.9412 7.68061C19.0269 7.37526 19.0188 7.05187 18.9179 6.75102ZM13.4528 10.1774C13.2283 10.3692 13.0612 10.6175 12.9696 10.8955C12.878 11.1736 12.8653 11.4709 12.9329 11.7555L13.8654 15.7205L10.3497 13.6238C10.0944 13.4712 9.80126 13.3904 9.50234 13.3904C9.20341 13.3904 8.91025 13.4712 8.65494 13.6238L5.13924 15.7205L6.07179 11.7555C6.13937 11.4709 6.12668 11.1736 6.03508 10.8955C5.94347 10.6175 5.77642 10.3692 5.55189 10.1774L2.43328 7.50591L6.53848 7.157C6.83575 7.13201 7.12035 7.02743 7.36128 6.85463C7.60222 6.68184 7.79027 6.44746 7.90496 6.17701L9.50234 2.43954L11.0997 6.17701C11.2144 6.44746 11.4025 6.68184 11.6434 6.85463C11.8843 7.02743 12.1689 7.13201 12.4662 7.157L16.5714 7.50591L13.4528 10.1774Z" fill="#FF5D26"/>
</svg>
