<svg width="19" height="18" viewBox="0 0 19 18" fill="none" xmlns="http://www.w3.org/2000/svg">
<path d="M18.5253 8.19915L14.7024 11.4795L15.8476 16.3635C15.9082 16.6188 15.8909 16.886 15.7979 17.1317C15.7049 17.3774 15.5402 17.5907 15.3246 17.7449C15.109 17.8991 14.8519 17.9874 14.5855 17.9988C14.3191 18.0101 14.0552 17.944 13.8268 17.8086L9.49449 15.225L5.1715 17.8086C4.94312 17.944 4.67923 18.0101 4.41284 17.9988C4.14644 17.9874 3.88935 17.8991 3.67371 17.7449C3.45807 17.5907 3.29345 17.3774 3.20043 17.1317C3.10741 16.886 3.09012 16.6188 3.15071 16.3635L4.29419 11.4845L0.470462 8.19915C0.268221 8.02765 0.12198 7.80125 0.0500773 7.54836C-0.0218253 7.29546 -0.0161884 7.02732 0.0662809 6.77757C0.14875 6.52781 0.304381 6.30755 0.513656 6.14441C0.722932 5.98128 0.976536 5.88252 1.24267 5.86053L6.28276 5.43132L8.25015 0.817431C8.35289 0.575333 8.52618 0.368534 8.74821 0.223075C8.97024 0.077616 9.23108 0 9.49788 0C9.76468 0 10.0255 0.077616 10.2476 0.223075C10.4696 0.368534 10.6429 0.575333 10.7456 0.817431L12.7189 5.43132L17.7573 5.86053C18.0235 5.88252 18.2771 5.98128 18.4863 6.14441C18.6956 6.30755 18.8512 6.52781 18.9337 6.77757C19.0162 7.02732 19.0218 7.29546 18.9499 7.54836C18.878 7.80125 18.7318 8.02765 18.5295 8.19915H18.5253Z" fill="#FF5D26"/>
</svg>
